<svg width="147" height="147" viewBox="0 0 147 147" fill="none" xmlns="http://www.w3.org/2000/svg">
<path d="M104.554 126.236H59.9638C56.7149 126.236 53.5991 124.946 51.3017 122.648C49.0044 120.351 47.7138 117.235 47.7138 113.986C47.7138 110.737 49.0044 107.621 51.3017 105.324C53.5991 103.027 56.7149 101.736 59.9638 101.736H71.4175L30.625 60.3925C28.4777 58.2986 27.1731 55.4896 26.9586 52.498C26.7441 49.5064 27.6346 46.5401 29.4613 44.1612C30.5568 42.8398 31.9338 41.7801 33.4916 41.0594C35.0495 40.3388 36.7487 39.9755 38.465 39.9962C40.0001 39.9649 41.5254 40.2475 42.9473 40.8268C44.3692 41.4061 45.6577 42.2698 46.7338 43.365L71.6013 68.2325L96.5913 49.49C98.8476 47.7966 101.64 46.9756 104.454 47.1782C107.267 47.3808 109.913 48.5933 111.904 50.5925C123.474 62.1873 132.178 76.3233 137.323 91.875L137.69 93.0387" stroke="#403F4C" stroke-width="6" stroke-miterlimit="10"/>
<path d="M65.1088 61.985C66.7004 58.2089 67.4728 54.138 67.3751 50.0413C67.3143 44.2538 65.5395 38.6141 62.275 33.8349C59.0104 29.0556 54.4025 25.3511 49.0335 23.1895C43.6645 21.0279 37.7752 20.5062 32.1098 21.6902C26.4444 22.8743 21.257 25.7109 17.2031 29.8418C13.1491 33.9728 10.4105 39.2126 9.33327 44.8992C8.256 50.5859 8.88841 56.4643 11.1506 61.7917C13.4128 67.1192 17.2032 71.6566 22.0431 74.8307C26.8829 78.0048 32.5549 79.6732 38.3426 79.625C41.5744 79.6343 44.7844 79.0959 47.8363 78.0325" stroke="#403F4C" stroke-width="6" stroke-miterlimit="10"/>
</svg>
