<svg width="66" height="64" viewBox="0 0 66 64" fill="none" xmlns="http://www.w3.org/2000/svg">
<path d="M9.66667 23.8381V45.1055C9.66667 50.6692 9.66667 53.4511 10.7566 55.576C11.7153 57.4453 13.2451 58.9648 15.1268 59.9172C17.2659 61 20.0661 61 25.6667 61H40.3333C45.934 61 48.734 61 50.8733 59.9172C52.755 58.9648 54.2847 57.4453 55.2433 55.576C56.3333 53.4511 56.3333 50.6692 56.3333 45.1055V8.01825M63 31.1977L44.8893 11.2103C40.7703 6.66456 38.711 4.39171 36.2853 3.55261C34.1553 2.81563 31.8367 2.8158 29.7063 3.55311C27.281 4.39254 25.222 6.66572 21.1038 11.2121L3 31.1977M39.6667 61V41.1318H26.3333V61" stroke="black" stroke-width="5" stroke-linecap="round" stroke-linejoin="round"/>
</svg>
