<svg width="78" height="63" viewBox="0 0 78 63" fill="none" xmlns="http://www.w3.org/2000/svg">
<path d="M2.925 62H75.075C76.1347 62 77 61.1425 77 60.0781C77 59.0138 76.1347 58.1562 75.075 58.1562H70.525V15.8281C70.525 13.7479 68.829 12.0625 66.75 12.0625H55.65C53.571 12.0625 51.875 13.7479 51.875 15.8281V58.1562H48.325V4.76562C48.325 2.68537 46.629 1 44.55 1H33.45C31.371 1 29.675 2.68537 29.675 4.76562V58.1562H26.125V30.5781C26.125 28.4979 24.429 26.8125 22.35 26.8125H11.25C9.17096 26.8125 7.475 28.4979 7.475 30.5781V58.1562H2.925C1.86531 58.1562 1 59.0138 1 60.0781C1 61.1425 1.86531 62 2.925 62ZM55.725 58.1562V15.9062H66.675V58.1562H55.725ZM33.525 58.1562V4.84375H44.475V58.1562H33.525ZM11.325 58.1562V30.6562H22.275V58.1562H11.325Z" fill="black" stroke="black" stroke-width="2"/>
</svg>
