<svg width="224" height="71" viewBox="0 0 224 71" fill="none" xmlns="http://www.w3.org/2000/svg">
<path d="M79.496 34V10.48H84.84C86.0347 10.48 87.1867 10.5973 88.296 10.832C89.4267 11.0667 90.4293 11.4613 91.304 12.016C92.1787 12.5707 92.872 13.3067 93.384 14.224C93.896 15.1413 94.152 16.272 94.152 17.616C94.152 19.1733 93.7893 20.528 93.064 21.68C92.3387 22.832 91.24 23.7173 89.768 24.336L95.368 34H91.24L86.504 25.104C86.1413 25.1253 85.6933 25.1467 85.16 25.168C84.648 25.168 84.2213 25.168 83.88 25.168H82.984V34H79.496ZM82.984 22.256H85.256C86.4293 22.256 87.368 22.1067 88.072 21.808C88.7973 21.5093 89.352 21.136 89.736 20.688C90.12 20.2187 90.376 19.7173 90.504 19.184C90.6533 18.6293 90.728 18.1173 90.728 17.648C90.728 16.6027 90.4827 15.7813 89.992 15.184C89.5227 14.5653 88.8613 14.128 88.008 13.872C87.176 13.5947 86.216 13.456 85.128 13.456H82.984V22.256ZM104.622 34.32C102.788 34.32 101.294 33.968 100.142 33.264C98.9903 32.5387 98.1476 31.5893 97.6143 30.416C97.0809 29.2427 96.8143 27.9947 96.8143 26.672C96.8143 25.072 97.1343 23.696 97.7743 22.544C98.4356 21.392 99.3423 20.5067 100.494 19.888C101.646 19.248 102.948 18.928 104.398 18.928C106.724 18.928 108.42 19.5787 109.486 20.88C110.553 22.16 111.086 23.888 111.086 26.064C111.086 26.64 111.054 27.2373 110.99 27.856H100.43C100.665 29.1787 101.134 30.128 101.838 30.704C102.564 31.2587 103.524 31.536 104.718 31.536C105.87 31.536 106.777 31.4293 107.438 31.216C108.1 31.0027 108.644 30.7893 109.07 30.576L110.126 33.04C109.7 33.3173 109.038 33.6053 108.142 33.904C107.246 34.1813 106.073 34.32 104.622 34.32ZM100.43 25.456H107.726C107.748 24.0693 107.438 23.12 106.798 22.608C106.158 22.096 105.326 21.84 104.302 21.84C103.236 21.84 102.361 22.128 101.678 22.704C101.017 23.2587 100.601 24.176 100.43 25.456ZM121.206 34.32C119.904 34.32 118.688 34.0107 117.558 33.392C116.448 32.7733 115.552 31.888 114.87 30.736C114.187 29.584 113.846 28.208 113.846 26.608C113.846 25.072 114.134 23.728 114.71 22.576C115.307 21.424 116.139 20.528 117.206 19.888C118.294 19.248 119.584 18.928 121.078 18.928C121.974 18.928 122.784 19.088 123.51 19.408C124.256 19.7067 124.875 20.08 125.366 20.528C125.878 20.9547 126.219 21.3707 126.39 21.776L126.454 19.312H129.75V34H126.486L126.422 31.408C126.208 31.8773 125.846 32.336 125.334 32.784C124.843 33.232 124.246 33.6053 123.542 33.904C122.838 34.1813 122.059 34.32 121.206 34.32ZM121.782 31.44C122.571 31.44 123.286 31.2587 123.926 30.896C124.587 30.512 125.11 29.9787 125.494 29.296C125.899 28.6133 126.102 27.8027 126.102 26.864V26.64C126.102 25.68 125.899 24.848 125.494 24.144C125.11 23.4187 124.587 22.864 123.926 22.48C123.286 22.0747 122.571 21.872 121.782 21.872C120.352 21.872 119.275 22.3307 118.55 23.248C117.846 24.1653 117.494 25.296 117.494 26.64C117.494 28.0053 117.846 29.1467 118.55 30.064C119.275 30.9813 120.352 31.44 121.782 31.44ZM133.935 34V10.48H137.359V34H133.935ZM141.778 34V19.312H145.362V34H141.778ZM143.57 16.56C142.909 16.56 142.354 16.336 141.906 15.888C141.479 15.44 141.266 14.8853 141.266 14.224C141.266 13.6267 141.479 13.1147 141.906 12.688C142.354 12.2613 142.909 12.048 143.57 12.048C144.231 12.048 144.775 12.2613 145.202 12.688C145.65 13.1147 145.874 13.6267 145.874 14.224C145.874 14.8853 145.65 15.44 145.202 15.888C144.775 16.336 144.231 16.56 143.57 16.56ZM151.021 34V22.128H148.429V19.312H151.021V13.328L154.509 12.56V19.312H157.901V22.128H154.509V34H151.021ZM161.984 42.064L165.152 34.448L159.072 19.312H162.976L166.112 28.656L166.816 30.928L167.52 28.656L170.816 19.312H174.592L165.568 42.064H161.984ZM91.208 63L85.544 52.024L84.072 48.696L83.4 52.024L81.224 63H77.672L82.536 39.48H82.92L89.384 52.184L91.304 56.44L93.224 52.184L99.56 39.48H99.912L104.968 63H101.448L99.08 52.024L98.376 48.696L97.096 52.024L91.4 63H91.208ZM114.268 63.32C112.967 63.32 111.751 63.0107 110.62 62.392C109.511 61.7733 108.615 60.888 107.932 59.736C107.249 58.584 106.908 57.208 106.908 55.608C106.908 54.072 107.196 52.728 107.772 51.576C108.369 50.424 109.201 49.528 110.268 48.888C111.356 48.248 112.647 47.928 114.14 47.928C115.036 47.928 115.847 48.088 116.572 48.408C117.319 48.7067 117.937 49.08 118.428 49.528C118.94 49.9547 119.281 50.3707 119.452 50.776L119.516 48.312H122.812V63H119.548L119.484 60.408C119.271 60.8773 118.908 61.336 118.396 61.784C117.905 62.232 117.308 62.6053 116.604 62.904C115.9 63.1813 115.121 63.32 114.268 63.32ZM114.844 60.44C115.633 60.44 116.348 60.2587 116.988 59.896C117.649 59.512 118.172 58.9787 118.556 58.296C118.961 57.6133 119.164 56.8027 119.164 55.864V55.64C119.164 54.68 118.961 53.848 118.556 53.144C118.172 52.4187 117.649 51.864 116.988 51.48C116.348 51.0747 115.633 50.872 114.844 50.872C113.415 50.872 112.337 51.3307 111.612 52.248C110.908 53.1653 110.556 54.296 110.556 55.64C110.556 57.0053 110.908 58.1467 111.612 59.064C112.337 59.9813 113.415 60.44 114.844 60.44ZM126.926 63V48.312H130.382V51.192C130.723 50.232 131.267 49.4533 132.014 48.856C132.782 48.2373 133.667 47.928 134.67 47.928C135.353 47.928 135.822 47.992 136.078 48.12L135.598 51.608C135.406 51.48 134.99 51.416 134.35 51.416C133.817 51.416 133.241 51.5333 132.622 51.768C132.003 52.0027 131.47 52.4187 131.022 53.016C130.595 53.592 130.382 54.4027 130.382 55.448V63H126.926ZM139.802 63V51.128H137.21V48.312H139.802V42.328L143.29 41.56V48.312H146.682V51.128H143.29V63H139.802ZM149.684 63V48.312H153.268V63H149.684ZM151.476 45.56C150.815 45.56 150.26 45.336 149.812 44.888C149.386 44.44 149.172 43.8853 149.172 43.224C149.172 42.6267 149.386 42.1147 149.812 41.688C150.26 41.2613 150.815 41.048 151.476 41.048C152.138 41.048 152.682 41.2613 153.108 41.688C153.556 42.1147 153.78 42.6267 153.78 43.224C153.78 43.8853 153.556 44.44 153.108 44.888C152.682 45.336 152.138 45.56 151.476 45.56ZM157.366 63V48.312H160.758L160.79 51C161.174 50.1253 161.792 49.4 162.646 48.824C163.52 48.2267 164.566 47.928 165.782 47.928C167.36 47.928 168.544 48.2587 169.334 48.92C170.123 49.56 170.646 50.4773 170.902 51.672C171.179 52.8667 171.318 54.2853 171.318 55.928V63H167.862V56.024C167.862 54.3173 167.691 53.016 167.35 52.12C167.03 51.224 166.272 50.776 165.078 50.776C164.459 50.776 163.819 50.968 163.158 51.352C162.496 51.736 161.942 52.2907 161.494 53.016C161.046 53.7413 160.822 54.6373 160.822 55.704V63H157.366Z" fill="#403F4C"/>
<path d="M18 8V9.25001M4.25001 23H3M8.00001 13L6.75 11.75M27.9999 13L29.25 11.75M8.00001 32.9999L6.75 34.25M23.1973 20C22.1599 18.2066 20.2208 17 18 17C14.6863 17 12 19.6863 12 23C12 25.2208 13.2066 27.1599 15 28.1973M12 44L31.2249 26.0568C32.3787 24.9799 32.9556 24.4414 33.6123 24.238C34.1907 24.0589 34.8093 24.0589 35.3877 24.238C36.0444 24.4414 36.6213 24.9799 37.7751 26.0568L57 44M18 38.3999V57.2C18 58.8803 18 59.7203 18.327 60.362C18.6146 60.9266 19.0736 61.3853 19.638 61.673C20.2798 62 21.1199 62 22.8 62H46.2C47.8803 62 48.7203 62 49.362 61.673C49.9266 61.3853 50.3853 60.9266 50.673 60.362C51 59.7203 51 58.8803 51 57.2V38.3999" stroke="#F9DC5C" stroke-width="5" stroke-linecap="round" stroke-linejoin="round"/>
</svg>
